# xmcd CD database file
#
# Track frame offsets:
#	150
#	35870
#	57890
#	95423
#	116156
#	137025
#	166852
#	191488
#	215760
#
# Disc length: 3368 seconds
#
# Revision: 0
# Processed by: cddbd v1.5.2PL0 Copyright (c) Steve Scherf et al.
# Submitted via: CDex 1.51
#
DISCID=840d2609
DTITLE=Peter Zak - Blues On The Corner
DYEAR=2008
DGENRE=Jazz
TTITLE0=BLUES ON THE CORNER
TTITLE1=THREE FLOWERS
TTITLE2=MAN FROM TANGANYIKA
TTITLE3=SUNSET
TTITLE4=MAY STREET
TTITLE5=BALLD FOR AISHA
TTITLE6=THE CAMEL
TTITLE7=ALL MY YESTERDAYS
TTITLE8=PERESINA
EXTD=YEAR: 2008
EXTT0=
EXTT1=
EXTT2=
EXTT3=
EXTT4=
EXTT5=
EXTT6=
EXTT7=
EXTT8=
PLAYORDER=
